<svg width="20" height="20" viewBox="0 0 20 20" fill="none" xmlns="http://www.w3.org/2000/svg">
<g id="Eye">
<g id="Eyes">
<g id="Union">
<path d="M2.20118 7.09822C4.45461 5.21822 7.04885 4.16667 9.79234 4.16667C12.5358 4.16667 15.1301 5.21822 17.3835 7.09822C17.7369 7.39305 18.2624 7.34558 18.5572 6.99218C18.8521 6.63878 18.8046 6.11328 18.4512 5.81845C15.9455 3.72796 12.9835 2.5 9.79234 2.5C6.60113 2.5 3.63922 3.72796 1.13349 5.81845C0.780094 6.11328 0.732618 6.63878 1.02745 6.99218C1.32229 7.34558 1.84778 7.39305 2.20118 7.09822Z" fill="#424551"/>
<path fill-rule="evenodd" clip-rule="evenodd" d="M3.41797 8.07419C4.91674 6.80886 7.05435 5.625 9.47982 5.625C11.9053 5.625 14.0429 6.80886 15.5417 8.07419C16.2972 8.71204 16.9166 9.39204 17.3544 9.99941C17.5729 10.3025 17.755 10.5999 17.8862 10.8756C18.0066 11.1289 18.1257 11.4486 18.1257 11.7708C18.1257 12.0931 18.0066 12.4127 17.8862 12.666C17.755 12.9418 17.5729 13.2392 17.3544 13.5423C16.9166 14.1496 16.2972 14.8296 15.5417 15.4675C14.0429 16.7328 11.9053 17.9167 9.47982 17.9167C7.05435 17.9167 4.91674 16.7328 3.41797 15.4675C2.66244 14.8296 2.04299 14.1496 1.60523 13.5423C1.38678 13.2392 1.2046 12.9418 1.07347 12.666C0.953018 12.4127 0.833984 12.0931 0.833984 11.7708C0.833984 11.4486 0.953018 11.1289 1.07347 10.8756C1.2046 10.5999 1.38678 10.3025 1.60523 9.99941C2.04299 9.39204 2.66244 8.71204 3.41797 8.07419ZM2.50656 11.7708C2.51499 11.7991 2.53444 11.8574 2.57861 11.9503C2.65562 12.1122 2.78041 12.3223 2.9573 12.5677C3.31021 13.0574 3.83487 13.6382 4.49312 14.194C5.82192 15.3158 7.59056 16.25 9.47982 16.25C11.3691 16.25 13.1377 15.3158 14.4665 14.194C15.1248 13.6382 15.6494 13.0574 16.0023 12.5677C16.1792 12.3223 16.304 12.1122 16.381 11.9503C16.4252 11.8574 16.4446 11.799 16.4531 11.7708C16.4446 11.7426 16.4252 11.6843 16.381 11.5914C16.304 11.4295 16.1792 11.2193 16.0023 10.9739C15.6494 10.4843 15.1248 9.90343 14.4665 9.3477C14.187 9.11173 13.8881 8.88407 13.5726 8.67166C13.6884 9.05945 13.7507 9.47038 13.7507 9.89583C13.7507 12.2545 11.8385 14.1667 9.47982 14.1667C7.1211 14.1667 5.20898 12.2545 5.20898 9.89583C5.20898 9.47038 5.2712 9.05945 5.38702 8.67166C5.07157 8.88407 4.77262 9.11174 4.49312 9.3477C3.83487 9.90343 3.31021 10.4843 2.9573 10.9739C2.78041 11.2193 2.65562 11.4295 2.57861 11.5914C2.53444 11.6843 2.51499 11.7426 2.50656 11.7708ZM6.87565 9.89583C6.87565 8.45759 8.04158 7.29167 9.47982 7.29167C10.9181 7.29167 12.084 8.45759 12.084 9.89583C12.084 11.3341 10.9181 12.5 9.47982 12.5C8.04158 12.5 6.87565 11.3341 6.87565 9.89583Z" fill="#424551"/>
</g>
</g>
</g>
</svg>
