<svg width="16" height="17" viewBox="0 0 16 17" fill="none" xmlns="http://www.w3.org/2000/svg">
<path fill-rule="evenodd" clip-rule="evenodd" d="M8.52347 3.28175C8.18117 3.18907 7.82039 3.18907 7.47809 3.28175C7.12173 3.37824 6.77613 3.63102 5.7906 4.39755L4.05726 5.7457C3.42297 6.23904 3.21001 6.41201 3.05947 6.61554C2.91481 6.81113 2.80705 7.03146 2.74148 7.26573C2.67324 7.50951 2.66745 7.7838 2.66745 8.58737V13.0006C2.66745 13.5143 2.67468 13.6234 2.69615 13.6941C2.76079 13.9072 2.92752 14.0739 3.14059 14.1386C3.21137 14.16 3.32042 14.1673 3.83411 14.1673H4.25078C4.33608 14.1673 4.3546 14.1671 4.36683 14.1665C4.7093 14.1496 4.98315 13.8758 4.99998 13.5333C5.00058 13.5211 5.00078 13.5026 5.00078 13.4173V11.5006C5.00078 9.84376 6.34393 8.50061 8.00078 8.50061C9.65763 8.50061 11.0008 9.84375 11.0008 11.5006V13.4173C11.0008 13.5026 11.001 13.5211 11.0016 13.5333C11.0184 13.8758 11.2923 14.1496 11.6347 14.1665C11.647 14.1671 11.6655 14.1673 11.7508 14.1673H12.1674C12.6811 14.1673 12.7902 14.16 12.861 14.1386C13.074 14.0739 13.2408 13.9072 13.3054 13.6941C13.3269 13.6234 13.3341 13.5143 13.3341 13.0006V8.58737C13.3341 7.7838 13.3283 7.50951 13.2601 7.26573C13.1945 7.03146 13.0867 6.81113 12.9421 6.61554C12.7916 6.41201 12.5786 6.23904 11.9443 5.7457L10.211 4.39755C9.22543 3.63102 8.87984 3.37824 8.52347 3.28175ZM7.12962 1.99476C7.70013 1.84029 8.30144 1.84029 8.87194 1.99476C9.52079 2.17044 10.0901 2.6137 10.9161 3.25679C10.9534 3.28581 10.9912 3.31525 11.0296 3.34508L12.7629 4.69323C12.7868 4.71186 12.8105 4.73024 12.8338 4.74837C13.37 5.16514 13.741 5.45346 14.0141 5.82267C14.2552 6.14865 14.4348 6.51589 14.5441 6.90633C14.6679 7.34856 14.6677 7.81839 14.6675 8.49754C14.6675 8.52708 14.6674 8.55702 14.6674 8.58737V13.0006C14.6674 13.0288 14.6675 13.0568 14.6675 13.0845C14.668 13.4653 14.6684 13.7943 14.5813 14.0812C14.3874 14.7204 13.8872 15.2206 13.248 15.4145C12.9611 15.5015 12.6322 15.5011 12.2513 15.5007C12.2236 15.5006 12.1957 15.5006 12.1674 15.5006L11.7368 15.5006C11.6734 15.5006 11.6189 15.5006 11.5693 15.4982C10.5419 15.4477 9.72033 14.6262 9.66986 13.5987C9.66742 13.5492 9.66743 13.4947 9.66745 13.4312L9.66745 11.5006C9.66745 10.5801 8.92126 9.83394 8.00078 9.83394C7.08031 9.83394 6.33411 10.5801 6.33411 11.5006L6.33412 13.4313C6.33413 13.4947 6.33414 13.5492 6.33171 13.5987C6.28123 14.6262 5.45966 15.4477 4.43225 15.4982C4.38269 15.5006 4.32818 15.5006 4.26475 15.5006L3.83411 15.5006C3.80588 15.5006 3.77792 15.5006 3.75023 15.5007C3.36938 15.5011 3.04044 15.5015 2.75355 15.4145C2.11434 15.2206 1.61413 14.7204 1.42023 14.0812C1.3332 13.7943 1.3336 13.4653 1.33405 13.0845C1.33408 13.0568 1.33411 13.0288 1.33411 13.0006V8.58737C1.33411 8.55702 1.3341 8.52708 1.33409 8.49753C1.33387 7.81839 1.33371 7.34856 1.45749 6.90633C1.56678 6.51589 1.74639 6.14865 1.98749 5.82267C2.26057 5.45346 2.63153 5.16514 3.16775 4.74837C3.19108 4.73024 3.21472 4.71186 3.23867 4.69323L4.97201 3.34508C5.01037 3.31525 5.04817 3.28581 5.08545 3.25678C5.91144 2.6137 6.48077 2.17044 7.12962 1.99476Z" fill="#424551"/>
</svg>
