<svg width="48" height="26" viewBox="0 0 48 26" fill="none" xmlns="http://www.w3.org/2000/svg">
<rect x="0.5" y="0.5" width="47" height="25" rx="1.5" fill="#F4F5F7"/>
<path d="M10.6298 8.22264C10.1401 7.66452 9.25499 7.42525 8.12267 7.42525H4.83631C4.72422 7.42519 4.61579 7.46514 4.53053 7.5379C4.44526 7.61067 4.38877 7.71148 4.37122 7.82219L3.00343 16.5013C2.99709 16.5416 2.99955 16.5827 3.01065 16.6219C3.02175 16.6612 3.04121 16.6975 3.06771 16.7285C3.0942 16.7594 3.1271 16.7843 3.16413 16.8013C3.20116 16.8184 3.24144 16.8272 3.2822 16.8271H5.31106L5.82061 13.5952L5.80482 13.6964C5.82203 13.5859 5.87815 13.4852 5.96305 13.4124C6.04794 13.3397 6.15604 13.2996 6.26786 13.2995H7.23198C9.12599 13.2995 10.609 12.5302 11.0422 10.3047C11.0551 10.2389 11.0662 10.1749 11.0759 10.1123C11.2046 9.28972 11.075 8.72985 10.6301 8.22293" fill="#003087"/>
<path d="M35.4684 12.3522C35.3443 13.1666 34.7225 13.1666 34.1211 13.1666H33.7788L34.019 11.6461C34.0336 11.5543 34.1126 11.4867 34.2056 11.4867H34.3627C34.7722 11.4867 35.1589 11.4867 35.3584 11.7198C35.4774 11.8594 35.5134 12.0665 35.4684 12.3522ZM35.2066 10.2274H32.9379C32.8627 10.2275 32.79 10.2543 32.7329 10.3031C32.6758 10.3519 32.6379 10.4194 32.626 10.4936L31.7093 16.3108C31.7051 16.3378 31.7068 16.3653 31.7142 16.3916C31.7216 16.4179 31.7346 16.4422 31.7524 16.463C31.7701 16.4837 31.7921 16.5004 31.8169 16.5118C31.8417 16.5233 31.8686 16.5292 31.8959 16.5293H33.0601C33.1686 16.5293 33.2611 16.4503 33.278 16.3433L33.5384 14.6935C33.5624 14.5405 33.6946 14.4273 33.8496 14.4273H34.5674C36.0622 14.4273 36.9245 13.7045 37.1497 12.2709C37.2512 11.6444 37.1538 11.1518 36.8604 10.8069C36.5378 10.4278 35.9659 10.2271 35.2069 10.2271" fill="#009CDE"/>
<path d="M19.2887 12.3526C19.1647 13.1669 18.5428 13.1669 17.9411 13.1669H17.5989L17.839 11.6465C17.8537 11.5546 17.9326 11.487 18.0257 11.487H18.1827C18.5923 11.487 18.979 11.487 19.1785 11.7202C19.2978 11.8597 19.3338 12.0668 19.2887 12.3526ZM19.0269 10.2278H16.7582C16.6032 10.2278 16.471 10.3407 16.4467 10.494L15.5297 16.3111C15.5254 16.3381 15.527 16.3657 15.5344 16.392C15.5419 16.4183 15.5549 16.4426 15.5726 16.4634C15.5904 16.4842 15.6124 16.5009 15.6372 16.5123C15.662 16.5237 15.689 16.5296 15.7163 16.5297H16.7998C16.9548 16.5297 17.0867 16.4167 17.111 16.2635L17.3587 14.6941C17.3827 14.5409 17.5149 14.428 17.67 14.428H18.3878C19.8825 14.428 20.7449 13.7049 20.9701 12.2713C21.0716 11.6447 20.9742 11.1521 20.6808 10.8073C20.3582 10.4282 19.7863 10.2275 19.0272 10.2275L19.0269 10.2278ZM24.2942 14.4411C24.1889 15.0618 23.6966 15.4787 23.068 15.4787C22.7529 15.4787 22.5005 15.3772 22.3385 15.1853C22.1776 14.9951 22.1173 14.724 22.1682 14.4224C22.2659 13.807 22.7667 13.377 23.3856 13.377C23.6942 13.377 23.9443 13.4793 24.1099 13.673C24.2763 13.8681 24.3419 14.1407 24.2942 14.4411ZM25.8082 12.3263H24.7218C24.6767 12.3262 24.633 12.3423 24.5986 12.3717C24.5643 12.401 24.5416 12.4416 24.5346 12.4863L24.4872 12.7899L24.4112 12.6799C24.176 12.3385 23.6515 12.2242 23.1279 12.2242C21.9278 12.2242 20.9025 13.1339 20.703 14.4092C20.5992 15.046 20.7466 15.6542 21.1076 16.0786C21.439 16.4685 21.912 16.6309 22.4756 16.6309C23.4433 16.6309 23.9797 16.0096 23.9797 16.0096L23.9312 16.3114C23.9269 16.3384 23.9285 16.366 23.936 16.3924C23.9434 16.4187 23.9565 16.443 23.9742 16.4638C23.992 16.4846 24.0141 16.5013 24.0389 16.5127C24.0637 16.5241 24.0908 16.53 24.1181 16.5299H25.0962C25.2513 16.5299 25.3835 16.4173 25.4078 16.2638L25.9951 12.5451C25.9994 12.518 25.9977 12.4904 25.9902 12.4641C25.9827 12.4378 25.9697 12.4134 25.9519 12.3927C25.9341 12.3719 25.912 12.3552 25.8872 12.3438C25.8623 12.3324 25.8353 12.3265 25.8079 12.3266" fill="#003087"/>
<path d="M40.4752 14.4411C40.3699 15.0618 39.8776 15.4787 39.249 15.4787C38.934 15.4787 38.6815 15.3772 38.5195 15.1853C38.3586 14.9951 38.2983 14.724 38.3492 14.4224C38.4469 13.807 38.9474 13.377 39.5667 13.377C39.8753 13.377 40.1254 13.4793 40.2909 13.673C40.4574 13.8681 40.5229 14.1407 40.4752 14.4411ZM41.9893 12.3263H40.9029C40.8577 12.3262 40.814 12.3423 40.7797 12.3717C40.7453 12.401 40.7226 12.4416 40.7157 12.4863L40.6683 12.7899L40.5922 12.6799C40.357 12.3385 39.8326 12.2242 39.309 12.2242C38.1091 12.2242 37.0838 13.1339 36.8841 14.4092C36.7802 15.046 36.9279 15.6542 37.2889 16.0786C37.6203 16.4685 38.0933 16.6309 38.657 16.6309C39.6249 16.6309 40.1614 16.0096 40.1614 16.0096L40.1128 16.3114C40.1084 16.3384 40.11 16.366 40.1173 16.3923C40.1247 16.4186 40.1377 16.443 40.1554 16.4638C40.1731 16.4846 40.1952 16.5013 40.22 16.5127C40.2448 16.5241 40.2718 16.53 40.2991 16.5299H41.277C41.432 16.5299 41.5642 16.4173 41.5888 16.2638L42.1762 12.5451C42.1804 12.518 42.1787 12.4904 42.1713 12.4641C42.1638 12.4378 42.1507 12.4134 42.1329 12.3927C42.1151 12.3719 42.093 12.3552 42.0682 12.3438C42.0433 12.3324 42.0163 12.3265 41.989 12.3266" fill="#009CDE"/>
<path d="M31.5934 12.3265H30.5011C30.3967 12.3265 30.2993 12.3782 30.2408 12.4648L28.7344 14.6832L28.0958 12.5514C28.0763 12.4864 28.0364 12.4294 27.982 12.3888C27.9276 12.3482 27.8615 12.3263 27.7936 12.3262H26.7204C26.6903 12.3262 26.6607 12.3334 26.6339 12.3471C26.6071 12.3609 26.5841 12.3809 26.5666 12.4053C26.549 12.4298 26.5376 12.4581 26.5333 12.4879C26.5289 12.5177 26.5317 12.5481 26.5414 12.5765L27.7436 16.106L26.6128 17.7016C26.5928 17.73 26.581 17.7632 26.5786 17.7978C26.5762 17.8324 26.5834 17.867 26.5993 17.8977C26.6153 17.9285 26.6394 17.9543 26.669 17.9724C26.6986 17.9904 26.7326 18 26.7672 18H27.8583C27.9612 18 28.0581 17.9494 28.1172 17.8646L31.7484 12.6234C31.7681 12.595 31.7797 12.5618 31.7819 12.5274C31.7841 12.4929 31.7768 12.4585 31.7608 12.4279C31.7448 12.3974 31.7208 12.3717 31.6912 12.3538C31.6617 12.3359 31.6279 12.3265 31.5934 12.3265Z" fill="#003087"/>
<path d="M43.2696 10.3881L42.3382 16.3118C42.334 16.3388 42.3357 16.3663 42.3431 16.3926C42.3506 16.4189 42.3636 16.4433 42.3814 16.464C42.3991 16.4848 42.4212 16.5015 42.446 16.5129C42.4708 16.5243 42.4978 16.5303 42.5251 16.5303H43.4615C43.6165 16.5303 43.7487 16.4174 43.773 16.2641L44.6912 10.4466C44.6954 10.4196 44.6938 10.392 44.6864 10.3657C44.6789 10.3394 44.6659 10.315 44.6481 10.2942C44.6304 10.2735 44.6083 10.2568 44.5835 10.2454C44.5586 10.234 44.5316 10.2281 44.5043 10.2281H43.4565C43.4114 10.228 43.3677 10.244 43.3334 10.2733C43.2991 10.3026 43.2765 10.3433 43.2696 10.3878" fill="#009CDE"/>
<path d="M10.6298 8.22264C10.1401 7.66452 9.25499 7.42525 8.12267 7.42525H4.83631C4.72422 7.42519 4.61579 7.46514 4.53053 7.5379C4.44526 7.61067 4.38877 7.71148 4.37122 7.82219L3.00343 16.5013C2.99709 16.5416 2.99955 16.5827 3.01065 16.6219C3.02175 16.6612 3.04121 16.6975 3.06771 16.7285C3.0942 16.7594 3.1271 16.7843 3.16413 16.8013C3.20116 16.8184 3.24144 16.8272 3.2822 16.8271H5.31106L5.82061 13.5952L5.80482 13.6964C5.82203 13.5859 5.87815 13.4852 5.96305 13.4124C6.04794 13.3397 6.15604 13.2996 6.26786 13.2995H7.23198C9.12599 13.2995 10.609 12.5302 11.0422 10.3047C11.0551 10.2389 11.0662 10.1749 11.0759 10.1123C11.2046 9.28972 11.075 8.72985 10.6301 8.22293" fill="#003087"/>
<path d="M6.36824 10.1234C6.38361 10.0266 6.43296 9.93855 6.50742 9.87492C6.58188 9.81128 6.67659 9.77627 6.77454 9.77616H9.35098C9.65606 9.77616 9.94068 9.79605 10.2007 9.83759C10.3429 9.86046 10.4836 9.89192 10.6219 9.93178C10.7791 9.97596 10.9312 10.0366 11.0756 10.1126C11.2049 9.28972 11.075 8.73014 10.6301 8.22293C10.1402 7.66511 9.25532 7.42583 8.12301 7.42583H4.83636C4.72437 7.42591 4.61607 7.46593 4.53093 7.53868C4.44579 7.61143 4.38939 7.71216 4.37185 7.82277L3.00348 16.501C2.9971 16.5413 2.99952 16.5824 3.01057 16.6217C3.02163 16.6609 3.04106 16.6973 3.06753 16.7283C3.094 16.7593 3.12688 16.7842 3.16389 16.8012C3.20091 16.8183 3.24119 16.8271 3.28195 16.8271H5.3111L5.82066 13.5949L6.36824 10.1234Z" fill="#003087"/>
<path d="M11.0762 10.1118C11.0662 10.1762 11.055 10.2404 11.0426 10.3043C10.6094 12.5295 9.12634 13.2991 7.23233 13.2991H6.26792C6.15612 13.2991 6.04803 13.3392 5.96317 13.412C5.87831 13.4848 5.82227 13.5855 5.80517 13.696L5.31141 16.8264L5.17101 17.7145C5.16542 17.7498 5.16755 17.7858 5.17725 17.8202C5.18694 17.8545 5.20397 17.8864 5.22716 17.9135C5.25035 17.9406 5.27915 17.9624 5.31157 17.9774C5.34399 17.9923 5.37927 18 5.41496 18H7.12527C7.32769 18 7.49969 17.8526 7.53157 17.6528L7.54825 17.5656L7.87059 15.5227L7.89107 15.4098C7.90639 15.313 7.95577 15.2248 8.0303 15.1612C8.10484 15.0975 8.19964 15.0626 8.29766 15.0626H8.55361C10.2104 15.0626 11.5077 14.3898 11.8868 12.4429C12.0447 11.6297 11.9628 10.9502 11.5445 10.4731C11.4117 10.3252 11.253 10.2028 11.0762 10.1118Z" fill="#009CDE"/>
<path d="M10.626 9.93167C10.5599 9.91207 10.4917 9.89452 10.4215 9.87902C10.3513 9.86351 10.2788 9.84976 10.2045 9.83806C9.94412 9.79565 9.6598 9.77576 9.35442 9.77576H6.77827C6.68021 9.77564 6.58535 9.81061 6.51083 9.87434C6.43631 9.93808 6.38706 10.0264 6.37197 10.1233L5.82439 13.5954L5.80859 13.6963C5.82569 13.5858 5.88173 13.4851 5.96659 13.4123C6.05145 13.3395 6.15954 13.2994 6.27135 13.2994H7.23576C9.12977 13.2994 10.6128 12.53 11.046 10.3046C11.0589 10.2388 11.0697 10.175 11.0796 10.1121C10.9652 10.0523 10.8461 10.002 10.7234 9.9618C10.6915 9.95127 10.659 9.94132 10.626 9.93138" fill="#012169"/>
<rect x="0.5" y="0.5" width="47" height="25" rx="1.5" stroke="#D7DADD"/>
</svg>
