<svg width="18" height="18" viewBox="0 0 18 18" fill="none" xmlns="http://www.w3.org/2000/svg">
<path fill-rule="evenodd" clip-rule="evenodd" d="M9.00117 1.70866C7.39034 1.70866 6.0845 3.0145 6.0845 4.62533C6.0845 6.23616 7.39034 7.54199 9.00117 7.54199C10.612 7.54199 11.9178 6.23616 11.9178 4.62533C11.9178 3.0145 10.612 1.70866 9.00117 1.70866ZM4.41784 4.62533C4.41784 2.09402 6.46987 0.0419922 9.00117 0.0419922C11.5325 0.0419922 13.5845 2.09402 13.5845 4.62533C13.5845 7.15663 11.5325 9.20866 9.00117 9.20866C6.46987 9.20866 4.41784 7.15663 4.41784 4.62533Z" fill="#17696A"/>
<path fill-rule="evenodd" clip-rule="evenodd" d="M4.08789 11.7087C3.51012 11.7087 3.05853 11.99 2.87522 12.3942C2.6215 12.9536 2.39175 13.6196 2.33754 14.2513C2.3133 14.5337 2.43104 14.7418 2.59327 14.8426C3.4509 15.3753 5.43816 16.292 9.00117 16.292C12.5642 16.292 14.5514 15.3753 15.4091 14.8426C15.5713 14.7418 15.689 14.5337 15.6648 14.2513C15.6106 13.6196 15.3808 12.9536 15.1271 12.3942C14.9438 11.99 14.4922 11.7087 13.9145 11.7087H4.08789ZM1.35736 11.7058C1.86398 10.5887 2.99526 10.042 4.08789 10.042H13.9145C15.0071 10.042 16.1384 10.5887 16.645 11.7058C16.936 12.3474 17.2482 13.2099 17.3254 14.1088C17.3956 14.9273 17.0554 15.7819 16.2885 16.2583C15.1606 16.959 12.8675 17.9587 9.00117 17.9587C5.13484 17.9587 2.84176 16.959 1.71381 16.2583C0.946924 15.7819 0.606723 14.9273 0.676977 14.1088C0.754125 13.2099 1.06637 12.3474 1.35736 11.7058Z" fill="#17696A"/>
</svg>
